<svg xmlns="http://www.w3.org/2000/svg" data-name="Layer 1" viewBox="0 0 100 125" x="0px" y="0px"><title>mail50</title><path d="M99.94,26.66h0c0-3.92,0-7.71.06-11.33l-0.3-1.07H0.1c0,4.29,0,8.75,0,13.3h0c0,20,0,41.64-.15,58.18H100C99.88,67.71,99.86,45.86,99.94,26.66Zm-6.28-4.9c-0.1,1.7-1.11,2.86-3.36,4.22C77.11,34,64,42.51,51.27,50.76l-0.54.35a3,3,0,0,1-.94.48,2.88,2.88,0,0,1-1-.49l-1.3-.84C35.06,42.18,22.19,33.82,9.25,26,7,24.63,6,23.47,5.92,21.77H93.65ZM92.73,78.23H7.11V34.37l1,0.62,4.1,2.58C22.94,44.3,34,51.25,44.79,58.24c3.61,2.33,6.83,2.34,10.44,0,10.53-6.76,21-13.31,32-20.25l5.51-3.47V78.23Z"/><text x="0" y="115" fill="#000000" font-size="5px" font-weight="bold" font-family="'Helvetica Neue', Helvetica, Arial-Unicode, Arial, Sans-serif">Created by i cons</text><text x="0" y="120" fill="#000000" font-size="5px" font-weight="bold" font-family="'Helvetica Neue', Helvetica, Arial-Unicode, Arial, Sans-serif">from the Noun Project</text></svg>