<svg xmlns="http://www.w3.org/2000/svg" xmlns:xlink="http://www.w3.org/1999/xlink" version="1.1" x="0px" y="0px" viewBox="0 0 512 640" enable-background="new 0 0 512 512" xml:space="preserve"><g><path d="M257.047,94.649c-19.852,0-36.003,16.158-36.003,36.018c0,19.853,16.151,36.004,36.003,36.004   c19.854,0,36.006-16.151,36.006-36.004C293.053,110.807,276.9,94.649,257.047,94.649z M257.047,160.671   c-16.543,0-30.003-13.459-30.003-30.004c0-16.552,13.459-30.018,30.003-30.018c16.545,0,30.006,13.466,30.006,30.018   C287.053,147.211,273.592,160.671,257.047,160.671z"/><path d="M360.892,344.33c-9.266-14.404-19.4-23.499-23.438-26.822c9.097-28.212,13.688-57.207,13.688-86.807   c0-76.945-31.78-151.402-91.91-215.323c-1.135-1.205-3.236-1.205-4.372,0c-60.128,63.916-91.911,138.373-91.911,215.323   c0,28.181,4.151,55.814,12.393,82.74c-4.071,3.313-14.396,12.455-23.848,26.938c-10.957,16.791-22.66,44.17-16.188,79.249   c0.224,1.216,1.171,2.17,2.385,2.402c0.189,0.036,0.378,0.054,0.566,0.054c1.018,0,1.983-0.52,2.539-1.401   c0.286-0.455,28.391-44.599,59.305-49.137c4.255,7.719,8.881,15.357,13.861,22.923c0.138,0.212,0.277,0.421,0.416,0.63   c0.743,1.122,1.487,2.245,2.246,3.365c0.971,1.438,1.951,2.866,2.943,4.289c0.001,0.002,0.003,0.003,0.004,0.005   c0.129,0.187,0.278,0.347,0.438,0.492c0.044,0.04,0.095,0.071,0.142,0.108c0.125,0.102,0.252,0.193,0.389,0.271   c0.062,0.035,0.126,0.064,0.19,0.096c0.133,0.063,0.269,0.119,0.409,0.162c0.07,0.021,0.14,0.043,0.212,0.061   c0.153,0.035,0.307,0.057,0.464,0.066c0.045,0.004,0.087,0.02,0.132,0.021l5.588,0.147c-1.033,5.332-1.565,10.778-1.565,16.246   c0,23.444,9.643,46.083,27.887,65.47c0.567,0.603,1.357,0.942,2.185,0.942s1.618-0.342,2.186-0.942   c18.266-19.418,27.918-42.058,27.916-65.47c0-4.861-0.444-9.794-1.313-14.711l5.837,0.156c0.023,0.001,0.053,0.001,0.076,0.001   c0.001,0,0.001,0,0.001,0c0.001,0,0.002,0,0.003,0c0.033,0,0.063-0.011,0.097-0.013c0.204-0.006,0.408-0.024,0.606-0.072   c0.098-0.023,0.188-0.068,0.281-0.104c0.129-0.045,0.262-0.08,0.385-0.146c0.094-0.048,0.176-0.118,0.264-0.176   c0.11-0.072,0.229-0.136,0.327-0.224c0.146-0.125,0.269-0.272,0.39-0.426c0.029-0.041,0.069-0.068,0.101-0.111   c0.013-0.018,0.024-0.033,0.036-0.053c0.976-1.381,1.938-2.768,2.891-4.156c0.652-0.949,1.295-1.902,1.938-2.855   c0.247-0.368,0.495-0.736,0.741-1.105c4.646-6.955,8.983-13.977,13.016-21.061c30.903,4.475,59.078,48.684,59.363,49.138   c0.558,0.885,1.521,1.402,2.538,1.402c0.188,0,0.378-0.018,0.566-0.054c1.214-0.233,2.16-1.188,2.385-2.402   C383.142,388.393,371.661,361.073,360.892,344.33z M140.093,411.087c-2.727-23.78,2.745-46.366,16.307-67.239   c7.771-11.959,16.33-20.217,20.918-24.207c5.196,15.707,11.799,31.166,19.791,46.346   C171.594,371.023,149.248,398.393,140.093,411.087z M256.042,479.403c-15.761-17.704-24.071-38.029-24.071-58.97   c0-5.418,0.552-10.816,1.642-16.082l45.095,1.209c0.954,4.972,1.437,9.963,1.437,14.873   C280.146,441.346,271.826,461.671,256.042,479.403z M293.98,392.855c-0.086,0.131-0.176,0.264-0.265,0.396   c-1.289,1.933-2.606,3.854-3.938,5.771c-0.189,0.271-0.377,0.545-0.566,0.815l-65.573-1.757c-0.551-0.795-1.097-1.592-1.64-2.391   c-5.984-8.813-11.534-17.847-16.531-26.93c12.526-13.974,30.324-21.945,49.152-21.945c20.257,0,39.58,9.463,52.079,25.406   C302.777,379.127,298.518,386.034,293.98,392.855z M309.842,366.583c-13.648-16.211-33.962-25.769-55.223-25.769   c-19.834,0-38.615,8.117-52.186,22.398c-8.45-16.051-15.308-32.418-20.568-49.061c-0.042-0.391-0.162-0.773-0.362-1.135   c-8.345-26.787-12.552-54.283-12.552-82.32c0-74.457,30.447-146.614,88.096-208.868c57.649,62.258,88.098,134.416,88.098,208.87   c0,29.421-4.64,58.243-13.832,86.284c-0.236,0.4-0.378,0.836-0.411,1.279C325.441,334.654,318.413,350.771,309.842,366.583z    M371.883,414.916c-9.155-12.691-31.48-40.039-56.979-45.082c8.225-15.122,15.057-30.523,20.488-46.173   C345.887,332.938,377.514,365.363,371.883,414.916z"/><path d="M322.081,407.273c-1.657,0-3,1.343-3,3v22.351c0,1.657,1.343,3,3,3s3-1.343,3-3v-22.351   C325.081,408.616,323.738,407.273,322.081,407.273z"/><path d="M312.92,451.97c-1.657,0-3,1.345-3,3v22.324c0,1.657,1.343,3,3,3s3-1.343,3-3V454.97   C315.92,453.313,314.577,451.97,312.92,451.97z"/><path d="M346.441,421.501c-1.657,0-3,1.343-3,3v22.324c0,1.657,1.343,3,3,3c1.655,0,3-1.343,3-3v-22.324   C349.441,422.844,348.099,421.501,346.441,421.501z"/><path d="M337.315,466.185c-1.657,0-3,1.345-3,3v22.348c0,1.657,1.343,3,3,3c1.655,0,3-1.343,3-3v-22.348   C340.315,467.527,338.973,466.185,337.315,466.185z"/><path d="M174.8,410.32c-1.657,0-3,1.343-3,3v22.338c0,1.657,1.343,3,3,3c1.657,0,3-1.343,3-3V413.32   C177.8,411.663,176.457,410.32,174.8,410.32z"/><path d="M165.671,455.005c-1.657,0-3,1.343-3,3v22.346c0,1.657,1.343,3,3,3c1.657,0,3-1.343,3-3v-22.346   C168.671,456.348,167.328,455.005,165.671,455.005z"/><path d="M199.162,424.535c-1.657,0-3,1.343-3,3v22.351c0,1.657,1.343,3,3,3c1.657,0,3-1.343,3-3v-22.351   C202.162,425.878,200.819,424.535,199.162,424.535z"/><path d="M190.032,469.232c-1.657,0-3,1.343-3,3v22.337c0,1.655,1.343,3,3,3c1.657,0,3-1.345,3-3v-22.337   C193.032,470.575,191.689,469.232,190.032,469.232z"/></g><text x="0" y="527" fill="#000000" font-size="5px" font-weight="bold" font-family="'Helvetica Neue', Helvetica, Arial-Unicode, Arial, Sans-serif">Created by ibrandify</text><text x="0" y="532" fill="#000000" font-size="5px" font-weight="bold" font-family="'Helvetica Neue', Helvetica, Arial-Unicode, Arial, Sans-serif">from the Noun Project</text></svg>